<svg id="eedvqbdwb95v1" xmlns="http://www.w3.org/2000/svg" xmlns:xlink="http://www.w3.org/1999/xlink" viewBox="0 0 864 864" shape-rendering="geometricPrecision" text-rendering="geometricPrecision"><style><![CDATA[#eedvqbdwb95v4 {animation: eedvqbdwb95v4_c_o 3000ms linear 1 normal forwards}@keyframes eedvqbdwb95v4_c_o { 0% {opacity: 0} 30% {opacity: 0} 40% {opacity: 1} 100% {opacity: 1} }#eedvqbdwb95v5 {animation: eedvqbdwb95v5_c_o 3000ms linear 1 normal forwards}@keyframes eedvqbdwb95v5_c_o { 0% {opacity: 0} 30% {opacity: 0} 40% {opacity: 1} 100% {opacity: 1} }#eedvqbdwb95v6 {animation: eedvqbdwb95v6_c_o 3000ms linear 1 normal forwards}@keyframes eedvqbdwb95v6_c_o { 0% {opacity: 0} 30% {opacity: 0} 40% {opacity: 1} 100% {opacity: 1} }#eedvqbdwb95v7 {animation: eedvqbdwb95v7_c_o 3000ms linear 1 normal forwards}@keyframes eedvqbdwb95v7_c_o { 0% {opacity: 0} 30% {opacity: 0} 40% {opacity: 1} 100% {opacity: 1} }#eedvqbdwb95v8 {animation: eedvqbdwb95v8_c_o 3000ms linear 1 normal forwards}@keyframes eedvqbdwb95v8_c_o { 0% {opacity: 0} 30% {opacity: 0} 40% {opacity: 1} 100% {opacity: 1} }#eedvqbdwb95v10 {animation: eedvqbdwb95v10_c_o 3000ms linear 1 normal forwards}@keyframes eedvqbdwb95v10_c_o { 0% {opacity: 0} 30% {opacity: 0} 40% {opacity: 1} 100% {opacity: 1} }#eedvqbdwb95v11 {animation: eedvqbdwb95v11_c_o 3000ms linear 1 normal forwards}@keyframes eedvqbdwb95v11_c_o { 0% {opacity: 0} 30% {opacity: 0} 40% {opacity: 1} 100% {opacity: 1} }#eedvqbdwb95v12 {animation: eedvqbdwb95v12_c_o 3000ms linear 1 normal forwards}@keyframes eedvqbdwb95v12_c_o { 0% {opacity: 0} 60% {opacity: 0} 70% {opacity: 1} 100% {opacity: 1} }#eedvqbdwb95v14 {animation: eedvqbdwb95v14_c_o 3000ms linear 1 normal forwards}@keyframes eedvqbdwb95v14_c_o { 0% {opacity: 0} 83.333333% {opacity: 0} 93.333333% {opacity: 1} 100% {opacity: 1} }#eedvqbdwb95v15 {animation: eedvqbdwb95v15_c_o 3000ms linear 1 normal forwards}@keyframes eedvqbdwb95v15_c_o { 0% {opacity: 0} 60% {opacity: 0} 70% {opacity: 1} 100% {opacity: 1} }#eedvqbdwb95v17 {animation: eedvqbdwb95v17_c_o 3000ms linear 1 normal forwards}@keyframes eedvqbdwb95v17_c_o { 0% {opacity: 0} 70% {opacity: 0} 83.333333% {opacity: 1} 100% {opacity: 1} }#eedvqbdwb95v18 {animation: eedvqbdwb95v18_c_o 3000ms linear 1 normal forwards}@keyframes eedvqbdwb95v18_c_o { 0% {opacity: 0} 10% {opacity: 1} 100% {opacity: 1} }#eedvqbdwb95v19 {animation: eedvqbdwb95v19_c_o 3000ms linear 1 normal forwards}@keyframes eedvqbdwb95v19_c_o { 0% {opacity: 0} 10% {opacity: 0} 20% {opacity: 1} 100% {opacity: 1} }#eedvqbdwb95v20 {animation: eedvqbdwb95v20_c_o 3000ms linear 1 normal forwards}@keyframes eedvqbdwb95v20_c_o { 0% {opacity: 0} 20% {opacity: 0} 30% {opacity: 1} 100% {opacity: 1} }#eedvqbdwb95v22 {animation: eedvqbdwb95v22_c_o 3000ms linear 1 normal forwards}@keyframes eedvqbdwb95v22_c_o { 0% {opacity: 0} 40% {opacity: 0} 50% {opacity: 1} 100% {opacity: 1} }#eedvqbdwb95v23 {animation: eedvqbdwb95v23_c_o 3000ms linear 1 normal forwards}@keyframes eedvqbdwb95v23_c_o { 0% {opacity: 0} 40% {opacity: 0} 50% {opacity: 1} 100% {opacity: 1} }#eedvqbdwb95v25 {animation: eedvqbdwb95v25_c_o 3000ms linear 1 normal forwards}@keyframes eedvqbdwb95v25_c_o { 0% {opacity: 0} 50% {opacity: 0} 60% {opacity: 1} 100% {opacity: 1} }#eedvqbdwb95v26 {animation: eedvqbdwb95v26_c_o 3000ms linear 1 normal forwards}@keyframes eedvqbdwb95v26_c_o { 0% {opacity: 0} 50% {opacity: 0} 60% {opacity: 1} 100% {opacity: 1} }#eedvqbdwb95v27 {animation: eedvqbdwb95v27_c_o 3000ms linear 1 normal forwards}@keyframes eedvqbdwb95v27_c_o { 0% {opacity: 0} 50% {opacity: 0} 60% {opacity: 1} 100% {opacity: 1} }#eedvqbdwb95v29 {animation: eedvqbdwb95v29_c_o 3000ms linear 1 normal forwards}@keyframes eedvqbdwb95v29_c_o { 0% {opacity: 0} 93.333333% {opacity: 0} 100% {opacity: 1} }#eedvqbdwb95v30 {animation: eedvqbdwb95v30_c_o 3000ms linear 1 normal forwards}@keyframes eedvqbdwb95v30_c_o { 0% {opacity: 0} 93.333333% {opacity: 0} 100% {opacity: 1} }]]></style><g id="eedvqbdwb95v2"><g id="eedvqbdwb95v3"><path id="eedvqbdwb95v4" d="M299.394400,353.087600C296.572200,351.885500,293.697500,351.284400,290.770100,351.284400C285.073200,351.284400,279.245700,353.610700,273.287800,358.262400C264.297200,365.266700,256.823400,377.156300,250.865400,393.934400C251.282300,383.114300,252.001800,374.190500,253.020700,367.159900C254.039700,360.131400,254.549700,356.328700,254.549700,355.752900C254.549700,355.231800,254.026600,354.447600,252.981300,353.401300C249.531800,350.631800,245.925400,349.220200,242.162200,349.167600C238.399000,349.167600,235.942100,350.135000,234.792600,352.068700C233.903100,353.688700,232.715200,359.229800,231.225700,368.688900C229.736200,378.150100,228.846700,387.557600,228.560400,396.913400C228.272000,406.269300,228.129300,412.593600,228.129300,415.886300C228.129300,429.057000,228.964100,443.639300,230.637800,459.633200C231.003100,462.560600,234.269500,464.023800,240.437900,464.023800C242.005300,464.023800,243.494800,463.841700,244.906400,463.475400C248.093800,462.587000,250.289600,461.489100,251.491800,460.181700C257.293900,463.110100,262.833000,464.572300,268.113000,464.572300C270.986700,464.572300,273.783600,464.128100,276.501500,463.239600C284.236300,460.783800,291.057500,456.014700,296.963800,448.931600C302.870200,441.850400,307.599800,433.565100,311.154500,424.078700C314.708200,414.592200,316.668300,406.987900,317.034600,401.264700C317.399900,395.541500,317.583000,391.844000,317.583000,390.171400C317.583000,382.540800,316.407200,375.615400,314.055600,369.395300C311.179800,361.817100,306.293400,356.380200,299.394400,353.087600ZM291.554300,411.025100C289.463800,419.649400,286.445300,427.477400,282.498900,434.505900C278.552500,441.536500,274.698300,446.083900,270.935100,448.147100C267.171900,450.213400,264.087700,451.244500,261.684500,451.244500C258.547700,451.244500,255.281300,450.173900,251.884400,448.029700C251.151800,435.225300,250.759200,424.615700,250.708600,416.199800C253.530700,404.544900,257.137100,394.431100,261.527700,385.858400C265.918300,377.287800,269.837300,371.786100,273.287900,369.355600C276.737400,366.925100,279.454300,365.709800,281.440600,365.709800C283.844900,365.709800,286.092200,366.807700,288.183800,369.002500C291.633300,373.132000,293.474900,377.430500,293.710700,381.900000C293.945400,386.368500,294.063800,389.282700,294.063800,390.640700C294.063800,397.122800,293.226900,403.917600,291.554300,411.025100Z" opacity="0" fill="rgb(0,0,0)" stroke="none" stroke-width="1"/><path id="eedvqbdwb95v5" d="M401.040300,354.420200C396.936100,352.434900,393.030200,351.441200,389.319600,351.441200C387.437500,351.441200,385.477500,351.650700,383.439500,352.068600C377.481500,353.322300,371.718800,357.191800,366.152400,363.671900C360.586000,370.153000,355.921200,379.953100,352.158000,393.071200C352.523300,383.141600,353.202300,374.674100,354.195900,367.669800C355.188600,360.666500,355.685400,356.589600,355.685400,355.439100C355.685400,354.551700,354.640100,353.428500,352.549600,352.068500C349.518000,350.134800,346.250600,349.167400,342.749500,349.167400C341.182100,349.167400,339.770500,349.402200,338.515800,349.872700C336.791600,350.605300,335.850500,351.675900,335.693700,353.087500C335.170500,353.610700,334.020000,359.359200,332.244200,370.335100C330.206300,382.671000,329.186300,397.410100,329.186300,414.553500C329.186300,427.672600,330.074700,442.699100,331.852600,459.633000C332.323100,461.934000,333.733700,463.227200,336.086300,463.513600C338.437900,463.802000,340.135900,463.944700,341.182200,463.944700C343.690700,463.944700,346.146500,463.553100,348.551800,462.768900C351.948700,461.672000,353.673000,459.946800,353.725600,457.595100C353.725600,457.438200,353.673000,456.746100,353.568800,455.516700C353.463500,454.289300,353.202500,450.121300,352.785600,443.012800C355.921400,449.860200,360.180500,454.968200,365.564700,458.339900C370.946900,461.710500,376.435400,463.396300,382.028100,463.396300C390.076600,463.396300,397.368300,459.921500,403.902000,452.968800C404.319900,452.447700,404.529400,451.924500,404.529400,451.401400C404.529400,450.356100,404.110500,449.650900,403.274600,449.284500C402.751500,449.076100,402.359900,448.970800,402.098800,448.970800C401.628300,448.970800,401.157800,449.154900,400.687200,449.519200C395.984000,453.596100,392.285500,455.752400,389.593900,455.987200C386.901300,456.222900,385.190200,456.340300,384.458600,456.340300C380.538600,456.340300,376.854300,455.321300,373.404800,453.282400C369.327900,450.879200,365.956300,447.429600,363.291000,442.933800C372.436400,441.731700,380.812800,438.439000,388.418100,433.055800C396.022400,427.672600,402.255700,421.059900,407.116700,413.219800C411.976800,405.380700,414.694700,398.912700,415.270500,393.815900C415.844300,388.720000,416.132700,385.387900,416.132700,383.820500C416.132700,377.026700,414.486300,370.519300,411.193700,364.298200C408.527300,359.700200,405.142500,356.407600,401.040300,354.420200ZM386.811200,406.320900C383.412300,412.803000,378.826400,418.499900,373.051600,423.412700C367.275800,428.326400,360.362500,431.383300,352.315000,432.585500C352.105500,424.431700,352.001300,419.179000,352.001300,416.827400C355.084500,403.604100,358.573500,393.346600,362.467200,386.054900C366.360900,378.763200,370.033100,373.968900,373.482600,371.668900C376.932100,369.368900,379.937400,368.218400,382.498500,368.218400C383.282700,368.218400,384.039600,368.297300,384.772200,368.454200C387.959600,369.291000,390.364900,371.198400,391.984900,374.177400C393.082800,376.267900,393.631300,378.934300,393.631300,382.174300C393.631300,389.543800,391.357600,397.593400,386.811200,406.320900Z" opacity="0" fill="rgb(0,0,0)" stroke="none" stroke-width="1"/><path id="eedvqbdwb95v6" d="M493.905200,430.468500C496.151600,429.684300,497.563200,428.090600,498.138900,425.686300C498.870500,422.342000,499.236800,416.723000,499.236800,408.830300C499.236800,388.759500,495.107300,372.897200,486.849300,361.241300C481.935600,354.342300,475.062900,350.291700,466.230100,349.089600C465.183800,348.985400,464.138500,348.932800,463.094300,348.932800C457.292100,348.932800,451.647900,350.762300,446.159400,354.420300C439.625600,358.810900,434.189800,365.788800,429.852900,375.353200C425.200300,386.381700,422.678600,395.384500,422.287000,402.362400C421.895400,409.339400,421.699100,413.847300,421.699100,415.886300C421.699100,425.346400,423.083300,434.049600,425.853900,441.993000C429.460300,451.401500,434.478200,458.052600,440.906700,461.946400C447.336200,465.839100,453.973200,467.787000,460.820600,467.787000C469.601800,467.787000,477.571400,465.225900,484.732500,460.103700C491.161000,455.556300,495.812600,449.233000,498.687400,441.130900L498.766300,440.503500C498.766300,440.033000,498.634700,439.641400,498.373700,439.327700C497.954800,438.857200,497.433600,438.622400,496.806300,438.622400C496.126300,438.622400,495.577900,438.988700,495.160000,439.719300C489.201000,449.389900,483.974600,454.929000,479.479800,456.340500C474.984000,457.752100,471.718600,458.457400,469.679700,458.457400C465.289100,458.457400,461.212200,456.889000,457.449000,453.753100C451.856300,449.155100,447.936200,441.628700,445.688800,431.173900C454.783600,431.279100,462.596400,431.330700,469.131200,431.330700C484.027100,431.330600,492.284100,431.044300,493.905200,430.468500ZM444.591900,423.333700C444.382400,421.138900,444.278200,418.786300,444.278200,416.277800C444.278200,402.636600,446.395100,390.903700,450.628800,381.076300C455.122600,371.564600,460.820500,365.631900,467.719600,363.279200C469.182800,362.808700,470.646000,362.573900,472.110200,362.573900C479.897700,362.573900,485.803000,368.794000,489.828300,381.233100C492.441000,389.386900,493.748300,400.990100,493.748300,416.043000C493.748300,419.492500,493.251500,421.739900,492.258800,422.785200C491.265100,423.831500,486.169300,424.353700,476.971200,424.353700C463.694300,424.353700,452.902500,424.013700,444.591900,423.333700Z" opacity="0" fill="rgb(0,0,0)" stroke="none" stroke-width="1"/><path id="eedvqbdwb95v7" d="M566.542400,365.278800C563.642400,360.078700,559.055500,356.119200,552.783800,353.401300C548.811100,351.728700,544.786900,350.892800,540.710000,350.892800C531.876200,350.892800,524.899300,354.159200,519.777100,360.691900C515.908700,365.605600,513.976000,372.244600,513.976000,380.605800L513.976000,382.565800C514.184500,383.768900,514.889800,384.369000,516.092900,384.369000C517.450900,384.369000,518.260400,383.637400,518.522500,382.174200C519.201500,376.007800,520.926700,371.107200,523.697200,367.473500C526.466700,363.841800,528.949900,361.802900,531.145700,361.358700C533.340500,360.915500,534.830000,360.691900,535.614100,360.691900C538.331000,360.691900,540.892100,361.660300,543.297400,363.593000C547.060600,367.042500,549.255300,371.211500,549.882700,376.097900C550.510100,380.985300,550.823700,385.701700,550.823700,390.249100C550.771100,393.594400,550.744800,397.802800,550.744800,402.871400C546.041600,399.892400,541.180500,398.402900,536.162500,398.402900C527.799300,398.402900,520.612800,401.905000,514.603200,408.908300C508.905300,415.493700,506.056800,424.302100,506.056800,435.329700C506.056800,444.894000,507.886300,452.081500,511.545300,456.888900C515.622200,462.325800,519.632300,465.225800,523.579600,465.592100C527.525000,465.956400,530.099200,466.140600,531.302300,466.140600C536.946600,466.140600,542.799400,464.912200,548.863600,462.455300C551.110000,464.545900,554.455300,465.592100,558.898500,465.592100C563.863800,465.592100,566.712300,464.101600,567.443800,461.122600C569.012200,452.655100,570.357000,443.457100,571.482300,433.526400C572.605500,423.595800,573.180200,416.356700,573.206500,411.809300C573.232800,407.261900,573.246000,404.727100,573.246000,404.204000C573.246000,396.313300,572.879700,389.256400,572.148100,383.036300C571.311400,376.399400,569.443500,370.479900,566.542400,365.278800ZM550.353200,430.468500C550.143700,432.349600,549.882700,435.591700,549.569000,440.189700C548.889000,448.709800,545.962600,452.968800,540.788800,452.968800C539.847800,452.968800,538.879400,452.786700,537.887700,452.420400C535.012900,451.375100,532.503400,449.180300,530.361300,445.835000C528.217100,442.490700,527.068600,438.257000,526.911800,433.133800C527.016000,426.287400,528.205000,421.060000,530.478700,417.453600C532.752400,413.847200,534.986600,411.705100,537.182400,411.025100C539.377200,410.346100,541.075200,410.006100,542.278300,410.006100C543.793100,410.006100,545.204700,410.319800,546.512000,410.947100C548.915300,412.096600,550.300500,413.978700,550.666800,416.591400C550.771000,419.570400,550.823600,421.923000,550.823600,423.647300C550.823700,425.582100,550.666900,427.855800,550.353200,430.468500Z" opacity="0" fill="rgb(0,0,0)" stroke="none" stroke-width="1"/><path id="eedvqbdwb95v8" d="M677.125300,369.316200C677.490600,364.821400,677.673800,361.999200,677.673800,360.848700C677.673800,355.413900,676.524300,352.199100,674.224300,351.205400C671.715900,350.161100,668.709500,349.638000,665.208400,349.638000C660.608400,350.318000,653.709300,359.595000,644.511300,377.469900C640.642900,384.996300,637.181200,392.209000,634.123300,399.108100C631.065400,406.007100,628.909100,411.181900,627.655300,414.631400C625.720600,406.426000,622.820500,397.135900,618.953100,386.760000C615.084700,376.386100,611.085700,366.756000,606.957200,357.869600C605.910900,355.309500,604.801900,353.428400,603.625100,352.225300C602.449300,351.023200,600.319300,350.422100,597.236000,350.422100C595.458200,350.422100,593.916100,350.735800,592.610700,351.362100C591.303300,351.989400,590.571800,352.905200,590.414900,354.106300C589.264400,363.514800,588.284900,375.301200,587.475400,389.464600C586.663900,403.630000,586.260100,414.135400,586.260100,420.981800L586.260100,432.035600C586.260100,444.423100,586.860100,453.727400,588.063300,459.946500C588.742300,462.404400,590.101300,463.631800,592.140200,463.631800C594.439200,463.631800,595.589700,461.802300,595.589700,458.143300L595.589700,457.124300C594.805500,448.762100,594.413900,439.170400,594.413900,428.351300C594.413900,412.043700,594.909700,395.710900,595.903400,379.350700C602.854100,394.717200,610.223600,413.639500,618.012100,436.112400C618.953100,438.465000,620.729000,439.718800,623.342700,439.875600C625.590100,439.825000,627.275900,438.699800,628.400100,436.505000C629.523300,434.309200,630.686000,431.043800,631.889100,426.704900C634.762900,416.618400,639.049200,405.197300,644.746100,392.443500C647.933500,385.230800,651.592500,378.174900,655.722100,371.275900C654.102000,386.277100,653.238900,397.763000,653.135700,405.732700C653.029400,413.704300,652.978800,418.996500,652.978800,421.609200C652.978800,431.173600,653.213500,439.327300,653.684100,446.069500C654.258900,454.642200,654.807300,459.554900,655.330500,460.808600C656.428400,462.847500,657.943200,463.891800,659.877900,463.944400C661.810600,463.996000,662.986400,464.023300,663.405300,464.023300C666.488600,464.023300,669.442200,463.474900,672.264400,462.377000C674.878100,461.384400,676.184400,457.908500,676.184400,451.949500C676.184400,450.748400,676.131800,449.441000,676.027600,448.029500C675.661300,443.482100,675.479100,437.210400,675.479100,429.213500C675.479100,422.576500,675.608600,414.762800,675.870700,405.772200C676.341100,385.963700,676.759000,373.812000,677.125300,369.316200Z" opacity="0" fill="rgb(0,0,0)" stroke="none" stroke-width="1"/></g><g id="eedvqbdwb95v9"><path id="eedvqbdwb95v10" d="M758.896900,350.422300C757.223300,349.847500,755.499000,349.559100,753.722100,349.559100C748.182100,349.559100,745.150400,351.102200,744.628300,354.185400C741.806200,374.830900,740.210400,393.176400,739.846100,409.221900C739.740900,414.239800,739.689200,418.943100,739.689200,423.333700C739.689200,432.063200,739.950300,440.203800,740.473400,447.755600C740.994500,455.309300,741.517700,459.633100,742.040800,460.731000C743.190300,462.978400,745.883000,464.101600,750.115700,464.101600C752.886200,464.101600,755.695200,463.592600,758.543700,462.573700C761.392100,461.553700,763.103300,460.156300,763.679000,458.378400L762.973700,445.442500C762.607400,438.439200,762.425200,429.370700,762.425200,418.237900C762.425200,402.453500,762.946300,386.852200,763.992600,371.433100C764.514700,363.384600,764.776800,358.053900,764.776800,355.439200C764.776800,354.656000,764.698900,353.924400,764.542100,353.244400C764.385300,352.565400,762.503200,351.624400,758.896900,350.422300Z" opacity="0" fill="rgb(0,0,0)" stroke="none" stroke-width="1"/><path id="eedvqbdwb95v11" d="M843.883100,348.069600C843.569400,347.912800,837.793600,347.834900,826.556600,347.834900C805.910100,347.834900,789.003400,347.730700,775.831700,347.521200C773.584300,347.521200,772.185900,347.638600,771.637400,347.874300C771.088900,348.109100,770.657900,348.514800,770.344200,349.089600C770.030500,349.665400,769.873700,350.239100,769.873700,350.813800C769.873700,353.374900,770.813800,354.865400,772.695800,355.282300C773.374800,355.388500,777.608500,355.518100,785.397000,355.674900C790.622300,355.831700,794.856100,355.909700,798.097100,355.909700C796.529700,380.789900,795.745500,401.722800,795.745500,418.708300C795.745500,431.514700,796.163400,444.946500,796.999300,459.005600C797.103500,460.679300,798.148800,461.881400,800.136100,462.612000C802.382400,463.501400,804.708800,463.944600,807.113000,463.944600C810.039400,463.944600,813.044700,463.266700,816.128900,461.906700C817.801500,460.914000,818.716200,459.974000,818.873100,459.084600C818.873100,455.269800,818.846800,452.395000,818.795200,450.460300C818.689900,426.783200,818.638300,395.240700,818.638300,355.831800C833.272200,355.570800,841.399700,355.309700,843.020700,355.047600C845.006100,354.682300,845.999700,353.453900,845.999700,351.362300C846,349.847500,845.294700,348.749600,843.883100,348.069600Z" opacity="0" fill="rgb(0,0,0)" stroke="none" stroke-width="1"/></g><path id="eedvqbdwb95v12" d="M590.068700,597.698400C589.838000,597.351800,589.606300,597.150400,589.377100,597.092700C589.145300,597.036100,589.001200,597.006000,588.944500,597.006000C588.540800,597.006000,588.194200,597.178800,587.906800,597.525600C583.294100,603.982400,578.033300,609.459000,572.125400,613.955800C566.214500,618.452400,559.456600,621.422500,551.845900,622.862400C555.016400,614.041500,556.602500,606.058000,556.602500,598.908500C556.602500,596.603400,556.429500,594.355000,556.083900,592.163300C554.642200,583.401400,551.485400,576.412000,546.614700,571.193500C541.742000,565.975900,536.222600,562.820100,530.054700,561.724300C528.208800,561.436200,526.392900,561.291700,524.606700,561.291700C518.436700,561.291700,512.874400,562.964900,507.916600,566.307100C501.573900,570.516500,497.567500,575.041700,495.896400,579.884100C494.225000,584.726800,493.389000,588.531900,493.389000,591.299000C493.389000,595.220600,494.350000,599.086700,496.253900,602.898500C493.034100,609.988500,489.201800,617.361400,484.740400,625.024900C479.840300,633.442000,474.478100,640.648200,468.656000,646.643400C463.122000,652.119700,459.027700,654.945200,456.376800,655.118200C453.724200,655.290900,452.254400,655.378000,451.967000,655.378000C447.470200,655.378000,444.183600,652.465500,442.108200,646.643400C441.012300,642.377800,440.465400,637.593000,440.465400,632.288500C440.465400,629.060600,440.666500,625.629600,441.071000,621.997900C442.164800,612.429000,443.548900,604.127200,445.221800,597.092800C459.749400,592.366500,472.548300,585.059000,483.616300,575.170800C494.685300,565.284400,503.562600,554.014300,510.251200,541.359200C516.938800,528.705800,521.002700,515.835900,522.444400,502.748200C522.673800,500.384400,522.790000,498.164300,522.790000,496.089000C522.790000,487.672600,521.002700,481.446000,517.429000,477.410400C513.853300,473.375500,509.328100,471.357800,503.851800,471.357800C502.583200,471.357800,501.228200,471.473900,499.787800,471.703600C492.407600,472.856900,484.855900,476.804800,477.130900,483.550000C468.137500,491.679200,460.195000,502.099700,453.307100,514.811400C446.417400,527.523300,440.725300,540.913800,436.228500,554.979200C431.731700,569.046900,428.560400,582.162000,426.715500,594.325900C425.446600,590.002100,423.299900,586.817200,420.273100,584.769900C417.247300,582.724700,414.032000,581.700100,410.631100,581.700100C409.650600,581.700100,408.612400,581.787100,407.518300,581.959900C402.848700,582.651600,398.062700,585.304200,393.163400,589.915100C387.628600,595.450100,383.593800,601.719800,381.056200,608.723600C378.520700,615.728600,377.252000,622.055700,377.252000,627.705000C377.252000,629.723700,377.396700,631.713300,377.683800,633.671600C378.722000,639.725200,380.984800,644.150700,384.472800,646.946100C387.959800,649.743400,391.462100,651.140100,394.979200,651.140100C396.823400,651.140100,398.812800,650.824700,400.946100,650.188900C406.941000,648.286300,413.080600,642.463900,419.365700,632.721500C421.094500,629.896800,422.881000,626.725300,424.726900,623.208300C424.783600,628.051000,425.216200,632.980300,426.023900,637.995700C426.830600,643.011900,428.416000,647.594800,430.780500,651.745800C434.584700,657.913700,438.044100,661.401400,441.157100,662.209200C444.270700,663.016000,446.633400,663.420200,448.247900,663.420200C451.361500,663.420200,454.561300,662.611700,457.846900,660.998300C462.804600,658.576900,467.588600,654.945400,472.201500,650.103000C478.370400,643.473900,483.932800,635.474900,488.891500,626.105400C489.984100,624.040900,491.019200,622.001900,492.013900,619.980900C491.995900,620.265000,491.967800,620.562500,491.962300,620.830900C491.875300,624.895200,491.832300,627.100600,491.832300,627.446400C491.832300,634.883000,493.159700,641.426900,495.810500,647.076200C498.518800,652.956000,502.814300,656.848000,508.695100,658.750800C510.885100,659.326100,513.047500,659.614900,515.180500,659.614900C518.985700,659.614900,522.617100,658.663700,526.076500,656.761100C531.437800,653.821300,536.179700,649.583300,540.302400,644.049300C544.423000,638.515000,547.752700,632.721500,550.289900,626.667900C558.820600,625.226900,566.330800,622.099700,572.817000,617.285400C579.302200,612.472100,585.022900,606.403900,589.982600,599.081800C590.155100,598.794400,590.241100,598.534600,590.241100,598.303200C590.241300,598.073500,590.183600,597.871400,590.068700,597.698400ZM465.067700,537.467900C472.993800,519.337200,481.022100,505.313700,489.151300,495.397200C493.648100,490.093600,497.539300,486.736700,500.826000,485.322400C504.111600,483.911100,506.589500,483.204000,508.262600,483.204000C510.510700,483.204000,512.441900,483.954100,514.056400,485.452400C516.361500,487.586500,517.515100,491.650500,517.515100,497.645600C517.515100,499.029600,517.457400,500.557000,517.342100,502.229200C516.304900,513.183100,512.873600,524.699400,507.051500,536.776300C501.228300,548.854200,493.200800,560.009200,482.967900,570.242400C472.734200,580.476100,460.412000,588.330800,445.999700,593.806200C450.784400,574.379500,457.140800,555.599400,465.067700,537.467900ZM424.813600,612.917600C421.238100,620.066800,418.038200,625.803000,415.214600,630.126000C411.063600,636.238200,408.050400,639.711300,406.178200,640.546700C404.303700,641.383500,402.962900,641.800700,402.157000,641.800700C400.829900,641.800700,399.764100,641.195000,398.957400,639.984800C397.802800,638.139900,397.227600,635.690400,397.227600,632.634200L397.227600,631.769800C397.515700,626.753600,398.567600,621.435400,400.384200,615.814400C402.200000,610.193400,404.289300,605.337100,406.653900,601.243800C410.169200,595.594700,412.821800,592.712300,414.609100,592.596200C416.395600,592.480800,417.347000,592.423200,417.463100,592.423200C420.632600,592.423200,422.967800,594.844400,424.467100,599.687000C424.640900,600.724500,424.726900,601.561300,424.726900,602.195200L424.726900,603.924000C424.783600,604.212900,425.015000,604.443600,425.418300,604.616400C425.187700,607.383400,424.986600,610.150400,424.813600,612.917600ZM536.454000,640.460600C532.994600,645.159300,529.721900,648.502600,526.639200,650.491400C523.554000,652.479800,521.002700,653.475000,518.985800,653.475000C517.198300,653.475000,515.468700,652.955700,513.797300,651.918200C511.722000,650.304800,510.539300,648.200100,510.251900,645.605800C509.962000,643.011600,509.819300,640.965500,509.819300,639.466200C509.819300,636.929600,510.048800,634.248700,510.510700,631.422900C511.144600,626.984800,512.067700,622.892400,513.277900,619.144000C522.444300,624.563600,532.417500,627.273000,543.199100,627.273000L544.496300,627.273000C542.593600,631.366300,539.912600,635.762500,536.454000,640.460600ZM551.587200,597.871400C551.528500,606.635300,549.712900,615.195900,546.139200,623.554800L543.976800,623.554800C533.311000,623.554800,523.510900,620.786800,514.574900,615.252800C517.111500,608.334800,519.547300,602.901200,521.882800,598.951600C524.217000,595.003700,525.759300,592.769000,526.509100,592.250400C528.295600,590.175000,529.189300,588.042700,529.189300,585.851000C529.189300,585.102700,529.073200,584.352600,528.843500,583.602600C527.979100,580.662800,526.580400,578.731600,524.649700,577.808800C522.717800,576.886700,521.175400,576.424800,520.022900,576.424800C518.062900,576.424800,515.958900,577.146500,513.710500,578.587200C507.347700,583.512100,502.487900,589.617500,499.099100,596.876800C498.893400,597.018000,498.747000,597.232500,498.663500,597.525700C498.634700,597.554600,498.634700,597.583100,498.620500,597.611900C498.017900,595.424200,497.712800,593.291400,497.712800,591.212200C497.712800,587.984100,498.461100,584.842900,499.961200,581.787000C502.439300,576.770600,505.999400,572.879400,510.640600,570.112400C515.281100,567.345400,520.051100,565.961400,524.952200,565.961400C525.700500,565.961400,526.450600,565.991500,527.200600,566.048200C532.965300,566.451700,538.269600,569.277400,543.112300,574.522200C548.761400,581.325900,551.587100,589.022600,551.587100,597.611700L551.587100,597.871400Z" opacity="0" fill="rgb(0,0,0)" stroke="none" stroke-width="1"/><g id="eedvqbdwb95v13"><path id="eedvqbdwb95v14" d="M635.153300,560.945900C636.825400,564.578300,637.661200,567.547400,637.661200,569.852500C641.350000,569.104200,644.564800,567.734100,647.303500,565.745500C650.041200,563.755900,652.131200,561.523100,653.572700,559.043200C654.898300,556.680500,655.561500,554.576800,655.561500,552.730800C655.561500,551.865400,655.416800,551.059400,655.129400,550.309600C654.379600,548.234000,653.024200,547.195800,651.064600,547.195800C650.775700,547.195800,649.968800,547.297200,648.643200,547.498700C647.317200,547.701600,645.385900,550.166000,642.849700,554.892300C642.560300,549.876900,641.379400,546.677300,639.304000,545.294300C638.381100,544.660300,637.488100,544.342900,636.624000,544.342900C635.642500,544.342900,634.691300,544.774700,633.770000,545.639800C632.731800,546.735700,632.213200,548.320000,632.213200,550.395400C632.213200,551.491300,632.356900,552.730800,632.645800,554.113800C633.337500,556.362300,634.172800,558.640800,635.153300,560.945900Z" opacity="0" fill="rgb(255,131,123)" stroke="none" stroke-width="1"/><path id="eedvqbdwb95v15" d="M788.821400,545.207300C788.071100,541.229100,785.418400,537.958200,780.864900,535.392500C776.310500,532.827300,769.247500,531.544300,759.678600,531.544300L759.073000,531.544300C749.271900,531.544300,736.214000,533.475900,719.899800,537.337800C720.937500,534.801500,721.902300,532.424100,722.796800,530.204000C723.689800,527.984900,724.280700,526.500300,724.569600,525.750200C724.683900,525.577400,724.742600,525.462100,724.742600,525.404600C725.144800,524.309500,725.347700,523.213900,725.347700,522.118000C725.347700,521.080600,725.175200,520.042400,724.828600,519.005200C724.136900,516.929600,722.782100,515.258400,720.764400,513.989800C719.322900,513.183100,717.824300,512.778600,716.267600,512.778600C715.517200,512.778600,714.739100,512.865600,713.933100,513.038400C711.512200,513.557000,709.493000,515.143100,707.879500,517.794000C703.382700,525.693500,699.260200,533.965400,695.513200,542.613000C691.535500,543.477400,687.268400,544.199100,682.714900,544.774700C678.161400,545.351700,674.011200,545.639800,670.262600,545.639800C668.878900,545.639800,667.495600,545.611500,666.111800,545.553100C660.981100,545.380300,656.657300,544.400600,653.139900,542.613000C649.624600,540.826800,647.605900,537.943400,647.087300,533.965400L647.087300,533.446600C647.087300,530.160000,648.240800,527.191800,650.545900,524.539200C652.966800,521.772200,655.591100,520.072500,658.415300,519.437800C659.106400,519.265100,659.453400,518.933900,659.453400,518.442600C659.453400,517.954100,659.453400,517.679700,659.453400,517.621200C659.453400,516.815200,659.223700,515.978400,658.760800,515.114000C658.242200,514.134300,657.636600,513.442600,656.945000,513.038400C656.253300,512.635900,655.647800,512.432800,655.129100,512.432800C654.668200,512.432800,654.177900,512.549100,653.659300,512.778600C648.586200,515.662700,645.430700,518.889900,644.190100,522.464600C642.950500,526.039300,642.330700,529.007400,642.330700,531.371200C642.330700,532.755200,642.474900,534.052200,642.763300,535.262400C644.435400,540.970200,647.994200,544.761700,653.442700,546.634200C658.890700,548.508500,664.785900,549.444200,671.126900,549.444200L673.374800,549.444200C680.581400,549.157100,687.268000,548.492800,693.437400,547.455600C684.500900,569.191100,678.879900,590.260700,676.574900,610.669100C676.514200,611.266600,676.470700,611.841900,676.416500,612.431100C674.499500,616.778700,672.257100,621.134800,669.656600,625.500400C664.006800,634.984000,657.664700,642.608400,650.632600,648.372800C646.365500,651.601700,642.763200,653.215400,639.822200,653.215400C638.266400,653.215400,636.910500,652.782600,635.757900,651.918200C633.279300,650.074300,632.039700,646.874500,632.039700,642.319200C632.039700,640.648100,632.212700,638.773900,632.558300,636.698500C635.268100,623.900600,638.323000,611.880200,641.725000,600.638400C642.936200,596.373100,643.973400,592.625300,644.838600,589.396400C645.068300,588.301500,645.184100,587.264300,645.184100,586.283800C645.184100,583.920000,644.462700,581.931400,643.021700,580.316000C641.061700,578.184700,638.640300,577.117200,635.757900,577.117200L635.325300,577.117200C632.269400,577.233500,629.675400,578.933000,627.542900,582.218600C625.409800,585.794300,623.232700,590.535300,621.013700,596.444500C618.795700,602.354400,617.238900,608.032100,616.344400,613.480100C615.451400,618.928300,615.004100,623.525600,615.004100,627.273100C615.004100,630.502300,615.235300,633.701900,615.695800,636.871300C617.369000,646.210500,620.106600,652.351200,623.910800,655.290900C627.716000,658.231000,631.549500,659.700800,635.412400,659.700800C636.565000,659.700800,637.747800,659.584700,638.958100,659.355200C644.203200,658.317800,649.132100,655.982600,653.745300,652.351200C660.605900,646.816200,666.918000,639.019800,672.683700,628.958900C673.785700,627.034800,674.796600,625.092300,675.760400,623.139600C675.729500,624.306000,675.710300,625.457000,675.710300,626.580800C675.710300,635.978700,676.777900,643.789400,678.909900,650.015800C682.196000,659.411900,685.525600,664.197600,688.897800,664.370700C692.270400,664.544300,694.043200,664.630300,694.216300,664.630300C700.672100,664.630300,707.879300,659.528100,715.834700,649.324500C724.079000,638.832500,732.322400,622.027400,740.566700,598.908800C740.623400,598.735800,740.653700,598.563000,740.653700,598.390200C740.653700,598.102100,740.537400,597.871600,740.308200,597.698600C740.018800,597.352000,739.643900,597.194700,739.184000,597.223000C738.721500,597.252400,738.375000,597.525800,738.145800,598.044400C727.768900,623.699500,719.322700,639.971300,712.808600,646.860000C706.293100,653.747900,701.480000,657.193700,698.367000,657.193700C696.002700,657.193700,694.099800,655.723700,692.659400,652.782900C691.332900,650.015900,690.670600,646.096400,690.670600,641.022500C690.670600,633.470500,692.140900,623.352900,695.080400,610.669400C698.540100,597.064600,702.530900,583.934900,707.058100,571.279800C711.582800,558.626400,715.113800,549.214900,717.651100,543.046200C717.880800,542.989500,718.256700,542.902500,718.775300,542.786400C721.080400,542.210900,725.101600,541.331100,730.839000,540.149200C736.574400,538.968300,742.367900,538.017100,748.220200,537.295200C754.070900,536.574400,759.130400,536.214000,763.396500,536.214000C765.355500,536.214000,767.288700,536.272700,769.190000,536.387000C775.127700,536.732800,779.077600,537.844200,781.037700,539.716600C782.997200,541.590900,783.977800,543.477800,783.977800,545.380700C783.977800,547.456100,783.228500,549.964300,781.729400,552.904100C779.884200,556.248400,777.319600,558.525100,774.033500,559.735300C773.456800,559.966500,773.168400,560.456800,773.168400,561.206100L773.168400,561.379100C773.283800,562.243200,773.658100,563.138000,774.292600,564.059100C774.926500,564.982000,775.575100,565.587500,776.238400,565.875700C776.900700,566.164800,777.434500,566.307500,777.838200,566.307500C778.356800,566.307500,778.933100,566.134500,779.568100,565.788900C783.200200,563.138000,785.650000,560.284000,786.918400,557.227900C788.358300,554.230400,789.080300,551.261300,789.080300,548.320500C789.080400,547.282700,788.994400,546.244400,788.821400,545.207300Z" opacity="0" fill="rgb(0,0,0)" stroke="none" stroke-width="1"/></g><g id="eedvqbdwb95v16"><path id="eedvqbdwb95v17" d="M32.541800,263.655100C33.748000,266.275900,34.352100,268.419000,34.352100,270.082600C37.014400,269.543300,39.334600,268.553600,41.310800,267.118800C43.287000,265.682900,44.794700,264.071000,45.836000,262.282000C46.792200,260.576000,47.270900,259.057100,47.270900,257.725500C47.270900,257.101200,47.166700,256.519300,46.959200,255.978000C46.417800,254.480400,45.439300,253.731600,44.025700,253.731600C43.817300,253.731600,43.234400,253.804500,42.278200,253.949200C41.321000,254.095900,39.926600,255.874800,38.097100,259.285900C37.887600,255.666400,37.035600,253.356200,35.538000,252.358500C34.871200,251.901100,34.226600,251.671400,33.603300,251.671400C32.895000,251.671400,32.207900,251.984100,31.543100,252.607400C30.794300,253.398700,30.419900,254.542100,30.419900,256.040700C30.419900,256.831000,30.523100,257.725500,30.731600,258.724200C31.231400,260.347200,31.833500,261.990500,32.541800,263.655100Z" opacity="0" fill="rgb(255,131,123)" stroke="none" stroke-width="1"/><path id="eedvqbdwb95v18" d="M105.813500,274.483200C113.926800,266.890000,120.646700,258.359800,125.972300,248.893600C131.297900,239.428400,134.835400,230.451000,136.582900,221.963300C137.123200,219.009600,137.394400,216.367600,137.394400,214.037200C137.394400,209.543400,136.415900,206.132300,134.460900,203.801000C131.964600,200.847300,128.697200,199.369900,124.661800,199.369900C123.788500,199.369900,122.893000,199.432600,121.978300,199.557100C116.611300,200.305900,111.180500,202.948900,105.689000,207.483200C100.403900,211.977000,95.587300,217.532200,91.240300,224.147900C86.892200,230.763600,83.032900,237.722300,79.663300,245.024100C76.292700,252.326900,73.422000,259.222900,71.050100,265.714100C68.844200,271.789500,66.462200,279.351300,63.904200,288.400600C62.225200,294.338300,60.723800,300.497700,59.367400,306.838200C58.754500,307.973000,58.121500,309.108600,57.444300,310.245200C53.366400,317.089600,48.789600,322.593200,43.714000,326.753100C40.633800,329.083500,38.034300,330.248200,35.912400,330.248200C34.789200,330.248200,33.810700,329.936500,32.978900,329.312200C31.188900,327.980600,30.295400,325.671500,30.295400,322.384800C30.295400,321.177600,30.419900,319.825700,30.669800,318.327200C32.624800,309.090700,34.829700,300.415800,37.285500,292.301500C38.158800,289.223300,38.907600,286.518600,39.531900,284.188200C39.697900,283.397900,39.781800,282.649100,39.781800,281.941800C39.781800,280.235700,39.260700,278.799900,38.221500,277.635200C36.806900,276.096100,35.059400,275.326100,32.978900,275.326100L32.666200,275.326100C30.460300,275.409100,28.588300,276.636500,27.049200,279.008400C25.510100,281.588700,23.938700,285.009900,22.337900,289.275000C20.736100,293.540100,19.612900,297.638300,18.967300,301.570400C18.322800,305.501600,18,308.820600,18,311.524400C18,313.855800,18.167000,316.164900,18.498900,318.452800C19.706100,325.193000,21.682300,329.624000,24.428600,331.746000C27.174900,333.868900,29.941400,334.929400,32.729100,334.929400C33.560900,334.929400,34.413900,334.845400,35.288200,334.679500C39.073700,333.930700,42.631500,332.245900,45.960600,329.624100C50.075900,326.304300,53.914500,321.838600,57.484200,316.261600C57.441400,316.495100,57.392900,316.721200,57.350400,316.955200C55.541100,326.940500,54.626400,334.169400,54.604100,338.642900C54.583900,343.115400,54.572700,345.414400,54.572700,345.539900C54.572700,354.235000,55.968100,361.392100,58.754800,367.009100C61.001200,371.087000,63.051300,373.313100,64.902000,373.687500C66.753800,374.061900,67.929600,374.249100,68.428400,374.249100C70.966200,374.249100,73.399800,372.979200,75.731200,370.442400C78.477500,367.362200,80.369700,362.286600,81.410900,355.213500C81.742800,352.591700,81.909800,349.908200,81.909800,347.161900C81.909800,344.790000,81.785300,342.356400,81.535400,339.860100C81.035500,334.450600,79.912300,329.478100,78.164800,324.942900C78.789100,324.985400,79.433700,325.005600,80.099500,325.005600C86.506800,325.005600,92.685300,323.653700,98.636200,320.949000C105.167900,318.036800,111.107700,313.980100,116.454500,308.779000C121.801300,303.577900,126.263700,297.669500,129.842800,291.053800C129.924800,290.887800,129.967300,290.741100,129.967300,290.616700C129.967300,290.450700,129.904600,290.283800,129.780100,290.116800C129.613100,289.867900,129.363200,289.733300,129.031300,289.712000C128.697400,289.690800,128.427200,289.847600,128.219800,290.179500C124.390800,296.420800,119.721000,302.017500,114.208200,306.968700C108.694400,311.920900,103.057200,315.560600,97.294500,317.891000C91.530800,320.221400,86.069600,321.386100,80.911000,321.386100C79.413400,321.386100,77.914800,321.303100,76.417200,321.136200C75.169500,318.681400,73.462500,316.559400,71.299100,314.770400C73.505000,306.365700,75.875900,298.189700,78.414700,290.242300C88.565900,287.330100,97.700200,282.076400,105.813500,274.483200ZM87.838300,263.716800C91.374800,254.564300,95.338400,245.648500,99.728000,236.973700C104.117600,228.297800,108.705500,221.214600,113.490700,215.722100C116.401900,212.518500,119.107700,210.416800,121.604000,209.418100C124.100300,208.419400,125.993600,207.920500,127.283700,207.920500C128.864300,207.920500,130.237400,208.399100,131.403100,209.356400C132.816700,210.521100,133.525000,212.643000,133.525000,215.722200C133.525000,217.303800,133.337800,219.134300,132.962400,221.214700C131.464800,228.829100,128.344200,237.171100,123.601400,246.241700C118.857700,255.313200,112.730700,263.676500,105.220500,271.331400C97.709300,278.987300,89.045500,284.479800,79.226200,287.807900C81.431100,280.901600,84.301800,272.871300,87.838300,263.716800ZM78.071600,337.051200C78.341800,340.754700,78.477400,343.542400,78.477400,345.414400C78.477400,348.701000,78.267900,351.821700,77.853100,354.776400C76.645900,361.849500,75.272800,365.844400,73.733700,366.759200C72.193600,367.673900,71.133200,368.132300,70.550300,368.132300C68.885700,368.132300,67.492400,366.613400,66.369200,363.576800C65.577900,360.871000,65.183300,357.647100,65.183300,353.903200C65.183300,352.944900,65.203500,351.968500,65.246000,350.969800C65.494900,345.934600,66.035300,340.889400,66.868000,335.834000C67.699800,330.778600,68.511300,326.525700,69.302600,323.071100C71.174600,323.862400,73.109300,324.403700,75.106800,324.694100C76.812800,329.229300,77.800400,333.347700,78.071600,337.051200ZM73.109300,320.511900C72.152100,320.263000,71.174600,319.887500,70.175800,319.388700L70.675700,317.266800C71.632000,318.265500,72.443500,319.348200,73.109300,320.511900Z" opacity="0" fill="rgb(0,0,0)" stroke="none" stroke-width="1"/></g><path id="eedvqbdwb95v19" d="M383.547900,289.868000C383.380900,289.702100,383.173500,289.618100,382.923600,289.618100L382.736400,289.618100C382.403500,289.660600,382.174800,289.868000,382.050300,290.242400C379.803900,296.982600,376.703500,304.139600,372.751100,311.711600C368.797700,319.285600,364.200700,325.380100,358.958100,329.998400C355.546000,332.660700,353.205500,334.024700,351.936600,334.086400C350.666700,334.149100,349.990700,334.180500,349.907800,334.180500C347.618900,334.180500,345.892600,333.369000,344.728000,331.745900C343.769700,330.373800,343.292100,328.667700,343.292100,326.628800C343.292100,326.171400,343.312300,325.671600,343.354800,325.130200C343.769700,322.135000,344.665200,318.307000,346.038300,313.647300C347.411400,308.987600,348.847300,304.369300,350.344900,299.791600C351.884000,295.131900,353.028400,291.428300,353.777200,288.682100C353.902700,288.057800,353.964400,287.475900,353.964400,286.934600C353.964400,284.687200,352.924200,282.795000,350.843800,281.254900C349.679100,280.590100,348.493200,280.256200,347.287000,280.256200C346.787100,280.256200,346.267000,280.318900,345.726700,280.443400C343.979200,280.817800,342.584800,281.816500,341.544600,283.439600C337.591200,290.096800,334.657700,297.253900,332.744200,304.908800C329.623500,311.774500,326.815600,316.778200,324.319200,319.919100C321.822900,323.061000,319.741400,324.631500,318.077900,324.631500L317.765200,324.631500C316.558000,324.424000,315.955900,323.258400,315.955900,321.136400C315.955900,320.554600,315.996400,319.867500,316.080400,319.077200C316.496300,315.623600,317.536500,311.109600,319.201100,305.533100C320.240300,301.872100,321.635700,297.045400,323.383200,291.054000C323.465200,290.845600,323.527900,290.658300,323.570400,290.492400C324.276700,288.329000,324.651100,286.820300,324.693600,285.967200C324.734100,285.115200,324.756300,284.604200,324.756300,284.438200C324.756300,283.065100,324.193700,281.753700,323.070500,280.506000C321.613400,279.049900,319.949900,278.321300,318.077900,278.321300L317.765200,278.321300C315.768700,278.445800,314.145700,279.279600,312.897000,280.817600C310.404200,284.249400,308.376400,288.394600,306.791000,293.217700C304.075600,296.529300,301.088500,299.430200,297.824900,301.913300C293.559800,305.158400,288.681500,307.301600,283.190000,308.341800C285.477900,301.976000,286.622300,296.213300,286.622300,291.053700C286.622300,289.390200,286.497800,287.767100,286.247900,286.185500C285.207700,279.861200,282.928900,274.816000,279.413600,271.050700C275.897300,267.285500,271.913500,265.006700,267.462200,264.216400C266.129600,264.008000,264.819200,263.903700,263.530000,263.903700C259.076700,263.903700,255.062500,265.110900,251.484500,267.524200C246.906700,270.561900,244.014800,273.827200,242.808600,277.322300C241.602400,280.817400,240.999400,283.563600,240.999400,285.561100C240.999400,288.474300,241.726900,291.345000,243.183100,294.174300C242.619000,295.675700,242.135500,297.072600,241.719900,298.382500C241.105400,299.214300,240.410300,300.138400,239.625300,301.164500C235.881300,305.949700,231.793300,310.276500,227.361200,314.146000C222.930200,318.015400,217.906100,321.447800,212.289200,324.444000C214.785500,314.042800,216.034200,303.869300,216.034200,293.924500C216.034200,289.430700,215.784300,284.999700,215.284400,280.630300C215.035500,278.925300,214.295800,277.509600,213.069400,276.386400C211.842000,275.263200,210.354500,274.701600,208.607000,274.701600C206.359600,274.701600,204.539200,275.679100,203.145900,277.635100C201.751500,279.591100,200.201300,282.503300,198.496300,286.372700C196.997700,289.701800,194.990100,293.747300,192.473600,298.511300C189.955000,303.276300,186.533800,308.757600,182.207000,314.957500C180.915800,316.789000,179.199700,318.723700,177.057500,320.761700C174.914300,322.800700,173.322600,324.028100,172.283400,324.444000C171.242200,324.860900,170.576400,325.068300,170.285900,325.068300C169.244700,325.068300,168.725600,324.153500,168.725600,322.322000C168.725600,321.407300,168.797400,320.450000,168.944200,319.451300C169.088900,318.452600,169.390400,317.069300,169.848800,315.300500C170.306200,313.532700,170.993200,311.056600,171.908000,307.873300C172.822700,304.690900,174.071400,300.415700,175.653000,295.047600C175.860400,294.423200,176.048600,293.821200,176.214600,293.237300C177.338800,289.660300,177.952000,287.371400,178.056200,286.372600C178.159400,285.373900,178.212000,284.770800,178.212000,284.562400C178.212000,283.023300,177.650400,281.671400,176.527200,280.505700C175.070100,279.049600,173.406500,278.321000,171.533500,278.321000C169.661500,278.321000,168.038400,278.986800,166.665300,280.318500C164.210500,283.397700,162.098600,287.537300,160.330900,292.738400C158.563100,297.940500,157.584600,302.184400,157.397400,305.471000C157.210200,308.757600,157.116100,310.838000,157.116100,311.711300C157.116100,316.289100,157.844700,320.471200,159.300800,324.256600C161.132300,328.210100,162.817100,330.195400,164.356200,330.216600C165.895300,330.237800,166.686600,330.248000,166.728100,330.248000C169.681800,330.248000,172.802500,329.000300,176.090100,326.503000C179.376700,323.966200,182.371900,320.803000,185.077700,317.016600C188.405800,312.315400,191.546700,307.197200,194.501400,301.663200C197.455100,296.130200,199.952400,290.928100,201.991400,286.059900C201.948900,301.288800,199.348400,316.497400,194.189800,331.683800C192.317800,332.182700,189.529000,332.785800,185.826600,333.494100C179.751200,334.617300,172.573900,336.312200,164.294700,338.579900C156.014400,340.847500,148.191500,344.041000,140.827000,348.160400C132.797700,353.111500,127.721100,358.115300,125.599100,363.170700C123.476200,368.226100,122.415700,372.541800,122.415700,376.120800C122.415700,378.492700,122.769900,380.801800,123.476200,383.049200C125.266200,388.790700,128.344400,392.993000,132.713700,395.656300C137.082000,398.318600,141.618300,399.650200,146.319500,399.650200C148.441400,399.650200,150.667600,399.421500,152.998000,398.964100C160.612400,397.591000,168.933200,392.930200,177.962200,384.983900C184.827800,378.908600,191.214900,371.086700,197.123300,361.516200C203.030700,351.945800,207.774400,340.774600,211.353400,328.001500C219.632700,323.674700,226.758400,318.483700,232.729500,312.429600C235.388700,309.732900,237.919700,306.824300,240.335800,303.727400C240.119300,304.898200,239.989200,305.957300,239.969500,306.874400C239.906800,309.807900,239.875400,311.399500,239.875400,311.649500C239.875400,317.016600,240.833700,321.740000,242.747100,325.816900C244.702100,330.060800,247.802500,332.869800,252.046300,334.242900C253.626900,334.657800,255.187200,334.866200,256.727300,334.866200C259.473600,334.866200,262.094300,334.180100,264.590700,332.807000C268.460100,330.685100,271.882400,327.627200,274.857300,323.632200C277.832200,319.638300,280.235500,315.456200,282.066000,311.087900C288.223300,310.047700,293.644000,307.790200,298.325000,304.316400C300.868400,302.429000,303.242800,300.264600,305.460300,297.842400C304.964700,299.832500,304.524600,301.907600,304.159500,304.097900C303.827600,306.261300,303.660600,308.591700,303.660600,311.088000C303.660600,312.295200,303.702100,313.564100,303.785100,314.894700C304.035000,318.806700,304.877900,322.239000,306.312800,325.192700C307.748700,328.147400,310.026400,329.832200,313.147100,330.248100C313.397000,330.289600,313.667200,330.310800,313.958600,330.310800C316.205000,330.310800,318.680100,329.249300,321.385800,327.127400C324.464000,324.798100,327.710100,320.720100,331.122200,314.894700C331.038200,315.810500,330.996700,316.726200,330.996700,317.641000C330.996700,320.595700,331.371100,323.507900,332.120900,326.378600C333.742900,332.037000,335.947800,335.510900,338.736600,336.801000C341.523300,338.091100,344.062200,338.736700,346.350000,338.736700C347.848600,338.736700,349.387700,338.527200,350.969300,338.112400C354.879200,337.029700,358.312600,335.261900,361.267300,332.807100C366.717300,327.980400,371.378000,321.573200,375.247500,313.584300C379.116900,305.595500,381.966400,297.981000,383.797900,290.741000C383.838400,290.658000,383.860600,290.575100,383.860600,290.492100C383.860500,290.242400,383.756300,290.034900,383.547900,289.868000ZM182.924300,355.868200C178.825200,362.879600,174.155300,369.234200,168.912700,374.935200C162.380000,381.676400,157.085800,385.691500,153.029100,386.981700C148.971400,388.270900,145.820400,388.916400,143.573000,388.916400C141.201100,388.916400,139.038700,388.436800,137.081700,387.480500C133.337700,385.649000,131.028600,383.329700,130.154300,380.521800C129.281000,377.712800,128.843900,375.455300,128.843900,373.750300C128.843900,371.211500,129.405500,368.527900,130.528700,365.698700C132.401700,360.996500,136.229700,356.669600,142.012600,352.717200C147.214700,349.346600,152.956200,346.527500,159.238900,344.259800C165.520700,341.992200,171.429100,340.181900,176.963100,338.830000C182.497100,337.477100,186.782400,336.509700,189.820100,335.927900C191.401700,335.636500,192.420600,335.429000,192.879000,335.303600C190.340400,342.002300,187.021400,348.856900,182.924300,355.868200ZM272.080500,321.043200C269.584200,324.434000,267.221400,326.847400,264.996300,328.282200C262.770200,329.718100,260.928500,330.435500,259.473400,330.435500C258.183200,330.435500,256.934600,330.061100,255.728400,329.312300C254.230800,328.147600,253.376800,326.628800,253.169300,324.755800C252.960800,322.883800,252.857600,321.407500,252.857600,320.324700C252.857600,318.494200,253.022500,316.559500,253.356500,314.520500C253.813900,311.316900,254.479700,308.363200,255.354000,305.658400C261.969700,309.569300,269.167200,311.524300,276.948700,311.524300L277.884700,311.524300C276.511600,314.480100,274.576800,317.652300,272.080500,321.043200ZM283.002800,290.305100C282.960300,296.629400,281.649900,302.809000,279.070600,308.840800L277.510300,308.840800C269.811900,308.840800,262.738800,306.844300,256.290000,302.849400C258.120500,297.856800,259.878200,293.935700,261.564000,291.085200C263.248800,288.234700,264.361900,286.621800,264.903200,286.247400C266.192300,284.749800,266.837900,283.210700,266.837900,281.629100C266.837900,281.088800,266.753900,280.547400,266.588000,280.006100C265.963700,277.884200,264.954800,276.490800,263.561400,275.825000C262.166000,275.160200,261.054000,274.826300,260.222200,274.826300C258.806600,274.826300,257.288800,275.347400,255.665700,276.386600C250.880500,280.090100,247.261000,284.709400,244.806100,290.242400C244.347700,288.619300,244.120000,287.038800,244.120000,285.498700C244.120000,283.169400,244.659300,280.901700,245.742100,278.695800C247.531100,275.076300,250.100300,272.267300,253.450700,270.270800C256.799000,268.273300,260.242500,267.274600,263.779000,267.274600C264.319300,267.274600,264.860700,267.295900,265.402000,267.337300C269.561900,267.628700,273.390900,269.667700,276.885900,273.453100C280.962800,278.363800,283.002800,283.918000,283.002800,290.116800L283.002800,290.305100Z" opacity="0" fill="rgb(0,0,0)" stroke="none" stroke-width="1"/><path id="eedvqbdwb95v20" d="M609.294600,289.929700C609.127700,289.764800,608.919200,289.680800,608.670300,289.680800L608.420400,289.742500C608.086500,289.785000,607.858800,290.013700,607.734400,290.429600C605.403000,298.459900,601.711600,306.334400,596.656300,314.052100C591.599900,321.770800,585.743100,327.856300,579.086900,332.308500C576.755500,333.763600,574.883500,334.492200,573.469900,334.492200C573.178500,334.492200,572.908300,334.450700,572.658400,334.367700C571.201300,333.950800,570.369500,333.213100,570.162100,332.151700C569.952600,331.091200,569.849400,330.311100,569.849400,329.811200C569.849400,328.522000,570.119500,327.127700,570.660900,325.630100C571.825600,322.509400,573.740100,318.265600,576.403300,312.897600C578.482800,308.696200,580.574300,304.243900,582.675000,299.541700C584.775700,294.840500,586.471600,290.429700,587.761800,286.310300C589.050900,282.190900,589.696500,278.634100,589.696500,275.637900C589.696500,275.180500,589.675300,274.723100,589.634800,274.264800C589.467800,270.936700,588.115000,268.564800,585.577100,267.150200C584.079500,266.400400,582.581900,266.026000,581.084400,266.026000C579.127400,266.026000,577.192700,266.650300,575.279200,267.899000C571.867200,270.062400,568.570400,273.421900,565.387000,277.978400C562.204600,282.533900,559.239800,287.589300,556.493500,293.144500C553.747200,298.698800,551.333900,304.015200,549.253400,309.090800C547.173000,314.167400,545.529600,318.307000,544.323500,321.510700C543.948100,322.593400,543.615200,323.487900,543.324800,324.194200C543.199300,323.612400,543.137600,322.925300,543.137600,322.135000C543.137600,319.887600,543.699200,316.850900,544.822400,313.023000C546.320000,307.780400,549.586300,298.917300,554.621500,286.434700C554.662000,286.352700,554.693300,286.290000,554.714600,286.247500C554.734800,286.207000,554.745900,286.164500,554.745900,286.123000C554.745900,286.082500,554.745900,286.051100,554.745900,286.029900C554.745900,286.008700,554.756000,285.977300,554.777300,285.935800C554.797600,285.895300,554.828900,285.841700,554.870400,285.780000C554.911800,285.717300,554.953300,285.602900,554.995800,285.437000C555.370300,284.479800,555.557400,283.543800,555.557400,282.628000C555.557400,280.964500,554.891600,279.382900,553.559900,277.884300C552.186800,276.595200,550.563700,275.960700,548.691700,275.980900C546.819700,276.002100,545.112700,276.803600,543.573600,278.384100C538.663900,284.542500,535.575600,290.492300,534.305700,296.233800C534.026400,297.497900,533.783100,298.700300,533.565500,299.859400C532.079000,303.025400,530.459000,306.316000,528.688700,309.746500C525.006400,316.882300,521.105600,322.925300,516.986200,327.876500C513.448700,331.745900,510.411000,333.681700,507.874200,333.681700L507.561500,333.681700C505.231100,333.514700,504.066400,331.475800,504.066400,327.564800C504.066400,327.066000,504.087600,326.545800,504.129100,326.004500C504.462000,323.175300,505.199700,319.535500,506.345100,315.082200C507.488500,310.630900,508.747300,306.126000,510.120500,301.570500C511.493600,297.014000,512.710900,293.155600,513.771400,289.992500C514.832900,286.831400,515.425800,285.104100,515.550300,284.812700C515.800200,283.980900,515.924700,283.189600,515.924700,282.440800C515.924700,280.402800,515.008900,278.634100,513.178400,277.135500C511.930800,276.303700,510.640600,275.887800,509.309000,275.887800C508.934600,275.887800,508.560200,275.909000,508.185800,275.949500C506.396800,276.199400,504.919400,277.095000,503.754700,278.634000C500.884000,282.836400,498.595100,287.433400,496.889100,292.427000C496.930600,292.094100,496.951800,291.739900,496.951800,291.365500C496.951800,288.244800,495.911600,285.541100,493.831100,283.252200C491.583700,280.672900,489.471900,279.361500,487.495700,279.320000C485.519500,279.279500,484.489400,279.257300,484.406400,279.257300C480.662400,279.257300,476.626000,281.109000,472.299200,284.812600C467.929900,288.849000,464.757600,293.435900,462.781400,298.574200C461.738100,301.287600,460.978000,303.842400,460.485400,306.247800C459.541300,307.542300,458.564300,308.815700,457.538800,310.058100C452.815300,315.779300,447.312700,320.471400,441.030900,324.132400C438.659000,325.505500,436.630200,326.295800,434.945400,326.503200C433.260600,326.712700,432.063600,326.815900,431.356300,326.815900C429.567300,326.815900,427.944200,326.462800,426.488100,325.754400C424.532100,324.755700,423.388700,322.925200,423.055800,320.262900L423.055800,319.451400C423.055800,315.790400,424.054500,311.483800,426.052000,306.531600C428.214400,301.164600,430.586300,296.463300,433.166600,292.426900C435.371500,289.056300,437.191900,287.058800,438.627700,286.434500C440.063600,285.811200,441.155400,285.498500,441.904200,285.498500C442.694500,285.498500,443.401800,285.748400,444.026100,286.247300C445.024800,287.080100,445.524700,288.224500,445.524700,289.680600C445.524700,289.889100,445.502400,290.116700,445.462000,290.366700C445.253600,292.239700,444.681800,293.945700,443.745800,295.484800C442.808800,297.024900,442.007400,298.189600,441.342600,298.979900C441.218100,299.146900,441.113900,299.291500,441.031000,299.417000C440.905500,299.582900,440.843800,299.771200,440.843800,299.978600C440.843800,300.062600,440.864100,300.165800,440.905500,300.290200C441.031000,300.581600,441.186800,300.758700,441.374000,300.820400C441.561200,300.883100,441.717000,300.914500,441.841500,300.914500C442.007400,300.914500,442.194600,300.831500,442.404100,300.664600C444.233600,298.959600,445.628000,297.180700,446.585200,295.328900C447.541400,293.478200,448.104000,291.989700,448.270000,290.866500C448.436000,289.992200,448.519900,289.180700,448.519900,288.431900C448.519900,285.478200,447.416900,283.002100,445.212000,281.004700C443.048600,279.049700,440.281100,278.071300,436.911500,278.071300C436.037200,278.071300,435.101300,278.134000,434.102500,278.258500C429.442800,278.882800,424.636300,281.963000,419.685100,287.496000C415.109400,293.072500,412.383300,298.023700,411.509100,302.350500C410.635800,306.678400,410.198700,309.943700,410.198700,312.148600C410.198700,315.353300,410.719800,318.245200,411.759000,320.824500C414.172400,326.316000,417.210000,329.384000,420.871000,330.029600C424.532000,330.674200,427.112300,330.996900,428.609900,330.996900C433.145200,330.996900,437.847400,329.769500,442.715600,327.314600C449.428400,323.627300,455.128900,318.668300,459.820200,312.441600C459.825000,313.902300,459.925700,315.324200,460.128100,316.704900C460.960900,322.071900,463.894300,325.941400,468.928500,328.313300C470.592000,328.979100,472.215100,329.312000,473.796700,329.312000C475.335800,329.312000,476.833400,328.979100,478.290500,328.313300C481.161200,326.940200,483.783000,324.808100,486.153900,321.916100C488.525800,319.025100,490.626400,315.934800,492.457900,312.648200C492.373900,313.771400,492.333400,314.915800,492.333400,316.080500C492.333400,319.867000,492.811000,323.632200,493.768200,327.377200C495.224300,332.495300,497.086200,335.636200,499.353800,336.800900C501.621400,337.965600,503.587500,338.549400,505.252100,338.549400C506.791200,338.549400,508.372800,338.215500,509.995800,337.550700C513.448300,336.218100,516.694500,333.784500,519.732200,330.247900C523.892100,325.172300,527.752400,318.868200,531.309200,311.336800C531.693000,310.524800,532.063600,309.723900,532.429400,308.926500C532.412700,309.368900,532.402100,309.800200,532.402100,310.213600C532.402100,313.209800,532.713800,316.040000,533.338100,318.702300C534.711200,324.527700,537.498000,328.043000,541.701300,329.249200C541.867300,329.291700,542.012900,329.311900,542.138400,329.311900C542.595800,329.311900,543.011600,329.166200,543.386100,328.874800C543.843400,328.500400,544.073200,328.001500,544.073200,327.377200C544.697500,326.171000,545.633500,324.049100,546.881200,321.011400L548.379800,317.516300C549.752900,314.270200,551.353700,310.671900,553.185200,306.718500C557.803400,296.899200,561.985600,289.254400,565.729600,283.782100C569.474600,278.310800,572.283600,274.815800,574.155600,273.297000C576.028600,271.778100,577.317700,271.019200,578.025000,271.019200C578.440900,271.019200,578.712100,271.227600,578.836500,271.642500C578.919500,271.934900,578.961000,272.246600,578.961000,272.579500C578.961000,273.786700,578.503700,275.387500,577.588900,277.385000C576.380700,280.005800,574.800100,283.106200,572.845100,286.684200C569.848900,291.926800,566.957000,297.762300,564.170200,304.190900C561.381400,310.619400,559.759400,317.100500,559.302000,323.632200L559.302000,324.818100C559.302000,329.644800,560.258200,333.222800,562.172700,335.553200C564.170200,337.965500,566.791000,339.172700,570.036100,339.172700L570.348800,339.172700C573.759900,339.088700,577.317600,337.820800,581.021200,335.366000C587.012500,331.454100,592.681100,325.535500,598.028000,317.609400C603.374800,309.683300,607.212900,300.768600,609.543300,290.866300L609.606000,290.553600C609.606200,290.305100,609.502000,290.096600,609.294600,289.929700ZM493.831300,302.912200C492.498600,305.741400,490.773400,308.924800,488.651500,312.461400C486.528500,315.997900,484.635300,318.462900,482.971800,319.857300C481.307200,321.251700,479.975600,321.947800,478.976900,321.947800C477.853700,321.947800,476.792200,321.407500,475.794500,320.324700C474.753300,318.827100,474.234200,316.913700,474.234200,314.583300C474.234200,313.543100,474.337400,312.398600,474.545800,311.150000C475.294600,307.280500,476.583800,303.432300,478.415300,299.604400C480.245800,295.776400,482.035800,292.822700,483.783300,290.741300C486.320100,287.870600,488.338800,286.434700,489.836400,286.434700L489.899100,286.434700C491.396700,286.477200,492.530000,287.246200,493.301000,288.744900C494.070000,290.242500,494.642800,291.719800,495.017200,293.175900C495.183200,293.800200,495.339000,294.299100,495.484700,294.673500C495.630400,295.047900,495.766000,295.235100,495.890500,295.235100C495.017200,298.023800,494.330100,300.581800,493.831300,302.912200Z" opacity="0" fill="rgb(0,0,0)" stroke="none" stroke-width="1"/><g id="eedvqbdwb95v21"><path id="eedvqbdwb95v22" d="M120.693800,488.127800C119.412800,487.868700,118.383700,487.739200,117.605500,487.739200C116.534900,487.739200,115.448200,487.884900,114.345200,488.177300C112.399300,488.663000,111.102100,489.523100,110.453500,490.755600C110.745900,498.961000,110.891600,505.658600,110.891600,510.847600C110.891600,515.486100,110.761100,520.075000,110.502000,524.615300C108.459000,526.140200,106.561700,526.901100,104.810100,526.901100C103.739500,526.901100,102.734700,526.609700,101.793700,526.025800C99.296400,524.501900,97.593400,521.193000,96.685700,516.101200C96.328500,513.734400,96.150400,511.204700,96.150400,508.512100C96.150400,504.328000,96.540000,498.815200,97.318100,491.971800C97.415200,491.387900,97.463800,491.015600,97.463800,490.852700C97.463800,490.106900,96.920400,489.425900,95.834700,488.809700C94.747900,488.193500,93.604500,487.787700,92.404400,487.593400C91.204300,487.398100,90.231900,487.301000,89.486100,487.301000C86.534400,487.301000,85.009500,487.803900,84.912400,488.809700C83.971400,493.252900,83.436100,497.274100,83.307500,500.874400C83.177000,503.858500,83.112200,505.755700,83.112200,506.566300C83.112200,510.847600,83.550300,514.917400,84.426600,518.776700C85.691500,523.772400,87.726400,527.412100,90.531300,529.699000C93.336300,531.984900,96.474100,533.128300,99.944900,533.128300C103.415700,533.128300,106.772100,532.172100,110.015200,530.258500C108.879900,542.161300,106.253000,549.815300,102.134600,553.220200C100.804000,554.226000,99.474400,554.728900,98.144700,554.728900C97.463700,554.728900,96.798900,554.599400,96.150300,554.339300C94.139700,553.627000,92.452900,552.069600,91.090900,549.669400C89.728900,547.269200,88.967000,544.349900,88.805000,540.912600C88.739200,539.971600,88.252500,539.501000,87.344800,539.501000C86.599000,539.501000,86.128500,539.890600,85.934200,540.668700C85.837100,541.771700,85.788500,542.826000,85.788500,543.830900C85.788500,548.242700,86.760900,551.761000,88.706800,554.387900C91.074600,557.664400,93.539600,559.552600,96.101700,560.055400C98.663800,560.558300,100.593500,560.809300,101.890700,560.809300C104.452800,560.809300,107.014900,560.290200,109.578000,559.253000C113.664000,557.501500,116.729000,554.971700,118.772000,551.663900C120.816000,548.356000,122.226600,544.577700,123.004700,540.328800C124.172400,533.939800,124.756300,526.268600,124.756300,517.317500C124.756300,509.338800,124.172400,500.436200,123.004700,490.608800C122.744900,489.215600,121.974800,488.387800,120.693800,488.127800Z" opacity="0" fill="rgb(0,0,0)" stroke="none" stroke-width="1"/><path id="eedvqbdwb95v23" d="M235.968800,489.636500C235.741100,488.565900,235.043900,488.015500,233.876200,487.982100C232.806600,488.047900,232.125600,488.647900,231.833200,489.782200C231.541800,490.917500,231.330300,495.198800,231.200800,502.626100C231.006500,519.198800,230.130200,531.555900,228.573900,539.696500C227.438600,544.626400,225.832700,547.926200,223.757300,549.596800C221.681900,551.267400,219.849400,552.102200,218.260700,552.102200C213.751700,552.102200,210.524800,547.950400,208.579000,539.647900C207.411300,533.778000,206.819300,528.953300,206.803100,525.174900C206.786900,521.396500,206.778800,519.069200,206.778800,518.192800C206.778800,509.176900,207.248300,500.630500,208.189400,492.554700L208.287500,491.873700C208.059800,490.446900,207.126900,489.361200,205.489600,488.614400C203.851400,487.868600,202.206000,487.495300,200.551600,487.495300C198.119000,487.495300,196.545500,488.274500,195.833200,489.830700C195.809700,489.886900,195.777300,490.009800,195.740100,490.168200C194.737600,490.379900,194.022400,491.353400,193.594900,493.090000C193.367200,493.998700,192.881500,495.263500,192.135800,496.884600C189.475600,502.236400,185.973400,506.322400,181.627400,509.144600C180.686300,504.279400,178.983300,499.983000,176.519400,496.252100C174.053400,492.523300,170.729400,489.782100,166.546300,488.030500C164.081300,487.025700,161.551600,486.522800,158.957100,486.522800C150.491700,486.522800,143.307300,491.177500,137.404900,500.484800C133.221800,507.620600,131.129200,516.652700,131.129200,527.582100C131.129200,536.469500,132.539800,543.620500,135.361900,549.037100C138.605000,554.940400,141.969500,558.523500,145.456500,559.788400C148.942400,561.053200,151.788900,561.685700,153.994800,561.685700C156.718800,561.685700,159.475200,561.084600,162.264900,559.885500C167.258600,557.713000,171.685600,553.690700,175.545900,547.820800C178.172800,543.605300,180.013400,538.958700,181.067800,533.882100C182.121200,528.807500,182.648400,524.128500,182.648400,519.847200C182.648400,518.064200,182.567400,516.264100,182.405500,514.446700C185.032400,512.825700,187.545900,510.766500,189.946100,508.269100C191.392100,506.662700,192.637500,505.092600,193.685300,503.557800C192.983800,509.611900,192.622600,515.864900,192.622600,522.328300C192.622600,528.425900,193.140700,534.441600,194.178900,540.377300C195.833300,548.257900,198.379200,553.788800,201.816600,556.966200C205.254000,560.144500,208.838100,561.734200,212.567900,561.734200C217.465400,561.734200,221.973400,559.560600,226.092800,555.215600C229.693100,551.453500,232.254200,546.360600,233.779100,539.939200C234.783900,534.976900,235.401100,529.715100,235.627800,524.152800C235.854500,518.590500,235.968800,513.020000,235.968800,507.441500C235.968800,500.630500,236.033600,495.473900,236.163100,491.971800C236.163100,491.161400,236.098400,490.383300,235.968800,489.636500ZM155.332700,498.977200C156.710900,496.966600,158.210500,495.644000,159.832600,495.011600C161.453600,494.379200,162.767100,494.063400,163.772900,494.063400C165.134900,494.063400,166.562700,494.420600,168.054200,495.134000C170.583900,496.496000,172.610700,498.611800,174.135600,501.482600C175.659500,504.352300,176.696700,507.717900,177.249200,511.577200C173.681300,513.264000,170.178100,514.139300,166.740800,514.204100C162.005200,514.139300,158.584000,513.272200,156.476200,511.601500C154.367400,509.930900,153.305000,508.487900,153.289800,507.271600C153.272600,506.055300,153.265500,505.398600,153.265500,505.301400C153.265400,503.096600,153.953500,500.987900,155.332700,498.977200ZM176.372800,533.275100C175.206100,538.594600,173.503100,542.907300,171.264800,546.215100C167.696900,551.243200,163.983300,553.755700,160.123900,553.755700C156.167400,553.755700,152.730000,551.469900,149.810800,546.896100C148.026800,543.879700,146.915800,540.629500,146.478600,537.142500C146.040500,533.656600,145.821900,530.632100,145.821900,528.069000C145.821900,521.323800,146.664800,515.193800,148.351600,509.680000C150.491800,514.188000,153.427200,516.928100,157.157000,517.901600C160.885800,518.875000,163.805100,519.360700,165.913900,519.360700C169.642700,519.360700,173.583000,518.534000,177.735800,516.879600L177.784400,519.653200C177.784400,524.291600,177.313900,528.831900,176.372800,533.275100Z" opacity="0" fill="rgb(0,0,0)" stroke="none" stroke-width="1"/></g><g id="eedvqbdwb95v24"><path id="eedvqbdwb95v25" d="M298.386000,485.987700C296.925900,485.987700,295.434300,486.182000,293.910400,486.571500C289.757600,487.609700,285.534000,490.998500,281.236500,496.738900C276.939000,502.479300,274.368800,508.479800,273.525900,514.739300C272.682000,520.998800,272.261000,525.507800,272.261000,528.264200C272.261000,534.620800,273.298200,540.589000,275.374600,546.166500C277.969100,552.490800,281.098800,556.813500,284.763900,559.131800C288.429000,561.450100,291.963500,562.609600,295.369500,562.609600C300.526100,562.609600,305.131200,560.663700,309.185800,556.772000C312.493700,553.627100,314.731900,549.491500,315.899700,544.366300C315.899700,543.848200,315.777300,543.474800,315.534400,543.247200C315.291500,543.021600,315.007200,542.907200,314.683400,542.907200C314.196700,542.907200,313.823300,543.150000,313.564300,543.636800C310.904100,549.410600,308.487700,552.660800,306.315200,553.391400C304.142700,554.121000,302.536800,554.485200,301.499600,554.485200C299.390800,554.485200,297.364000,553.707100,295.418100,552.150800C292.531200,549.847800,290.310100,546.409400,288.752800,541.836700C287.487900,537.458300,286.855500,532.804600,286.855500,527.874700C286.855500,518.144400,289.028000,509.663800,293.375100,502.430800C294.640000,500.582100,296.252900,499.188700,298.214900,498.247700C300.177000,497.306600,301.952800,496.836100,303.542500,496.836100C304.353000,496.836100,305.179700,496.933200,306.023600,497.128500C308.456200,497.744700,310.442500,499.650100,311.982600,502.844700C313.522700,506.039300,314.293800,510.701000,314.293800,516.831000L314.293800,518.728300C314.358600,519.572200,314.763300,519.993100,315.510100,519.993100C316.775000,519.993100,317.407400,516.848100,317.407400,510.555200C317.407400,506.014900,316.742600,502.107000,315.413000,498.831500C311.942300,490.269000,306.266600,485.987700,298.386000,485.987700Z" opacity="0" fill="rgb(0,0,0)" stroke="none" stroke-width="1"/><path id="eedvqbdwb95v26" d="M357.761500,497.444200C355.961400,494.217300,353.114900,491.760400,349.223200,490.074600C346.758200,489.036400,344.260900,488.517300,341.731200,488.517300C336.249800,488.517300,331.920000,490.545100,328.741600,494.598800C326.341400,497.647600,325.142300,501.767000,325.142300,506.954900L325.142300,508.171200C325.270800,508.918000,325.709000,509.290300,326.455700,509.290300C327.298600,509.290300,327.800500,508.837000,327.963400,507.928300C328.384400,504.101400,329.454900,501.061700,331.174100,498.806200C332.893300,496.552700,334.433400,495.287900,335.796400,495.011600C337.158400,494.736400,338.082300,494.598800,338.569000,494.598800C340.254800,494.598800,341.844500,495.198800,343.337000,496.398900C345.671400,498.539000,347.034400,501.125400,347.423000,504.158000C347.812600,507.190600,348.006900,510.118000,348.006900,512.939200C347.974500,515.015600,347.958300,517.626200,347.958300,520.772200C345.039000,518.923400,342.023600,517.998600,338.910000,517.998600C333.720000,517.998600,329.260600,520.172100,325.530800,524.518200C321.995200,528.604200,320.228500,534.069400,320.228500,540.912800C320.228500,546.847500,321.362800,551.307900,323.633500,554.290900C326.163200,557.664600,328.652500,559.463700,331.101200,559.691400C333.550000,559.918100,335.146700,560.031400,335.893500,560.031400C339.395600,560.031400,343.028300,559.269400,346.790500,557.745500C348.184900,559.041800,350.260300,559.691400,353.017600,559.691400C356.098800,559.691400,357.865600,558.766500,358.320900,556.917800C359.293300,551.664100,360.128100,545.956000,360.826300,539.793700C361.522500,533.632300,361.879700,529.139500,361.895800,526.317400C361.912000,523.496300,361.920100,521.923800,361.920100,521.599000C361.920100,516.702500,361.693400,512.324100,361.239100,508.463700C360.720200,504.345300,359.561600,500.672100,357.761500,497.444200ZM347.715500,537.896400C347.585000,539.064100,347.423100,541.074700,347.228800,543.929200C346.806800,549.215300,344.990500,551.858300,341.779800,551.858300C341.196000,551.858300,340.595900,551.745000,339.979700,551.518300C338.195800,550.869700,336.639500,549.507700,335.309900,547.431300C333.979200,545.355900,333.266900,542.729100,333.168700,539.550700C333.233500,535.301800,333.972100,532.058700,335.382700,529.820400C336.793300,527.582100,338.179500,526.253500,339.542600,525.831500C340.904600,525.409600,341.958000,525.199100,342.704700,525.199100C343.644800,525.199100,344.520000,525.393400,345.331600,525.783000C346.823100,526.496400,347.682200,527.664000,347.909900,529.285100C347.974700,531.133800,348.007100,532.592900,348.007100,533.663500C348.006900,534.863800,347.909700,536.275300,347.715500,537.896400Z" opacity="0" fill="rgb(0,0,0)" stroke="none" stroke-width="1"/><path id="eedvqbdwb95v27" d="M416.455900,507.782700C414.833900,501.004100,412.677500,496.390900,409.985900,493.942100C407.293300,491.493300,404.439800,490.268900,401.423300,490.268900C398.310700,490.268900,395.260900,491.112800,392.277900,492.798600C389.455700,494.420600,387.152700,496.252200,385.369700,498.296200C385.725900,493.917800,385.905000,491.550000,385.905000,491.192800C385.612600,489.863200,384.655300,488.915000,383.034300,488.347400C381.412300,487.779700,380.050300,487.495400,378.948300,487.495400C375.509900,487.495400,373.612600,488.452600,373.255400,490.366100C371.699100,501.782200,370.806600,511.050100,370.580000,518.168700C370.353300,525.288300,370.240000,530.744400,370.240000,534.540000C370.240000,538.723100,370.337100,542.437800,370.531400,545.679800C370.855200,551.875600,371.228600,555.474800,371.650500,556.480700C372.265700,557.647400,373.271600,558.297000,374.666900,558.426600C376.060300,558.556100,376.936600,558.620900,377.293800,558.620900C379.369200,558.620900,381.460700,558.005700,383.569500,556.772100C384.347600,556.220600,384.792900,555.783500,384.907200,555.458700C385.020500,555.134900,385.077200,554.826300,385.077200,554.533800L385.028600,553.804200C384.509500,548.323900,384.250500,541.723300,384.250500,534.004600C384.250500,524.955300,384.444800,516.231800,384.834400,507.831100C389.018500,501.474400,392.520700,498.296100,395.342900,498.296100C396.250600,498.296100,397.125800,498.604700,397.969700,499.220000C399.818400,500.647800,401.390900,504.214700,402.688100,509.922700C403.661500,515.145000,404.148200,520.998800,404.148200,527.485000C404.148200,533.777900,403.888100,541.383300,403.370100,550.302000C403.142400,553.804100,403.012900,555.604300,402.980500,555.701400C403.207200,556.707200,404.002500,557.525900,405.364500,558.158200C406.726500,558.790600,407.877000,559.123500,408.818100,559.155900C409.759100,559.187300,410.293400,559.204500,410.424000,559.204500C411.915500,559.204500,413.212800,558.912000,414.315700,558.329200C415.223400,557.777700,415.677700,557.014700,415.677700,556.042300C415.710100,555.977500,415.726300,555.896600,415.726300,555.798500C417.445500,543.799500,418.304600,533.614900,418.304600,525.247600C418.304600,518.858800,417.688400,513.036400,416.455900,507.782700Z" opacity="0" fill="rgb(0,0,0)" stroke="none" stroke-width="1"/></g><g id="eedvqbdwb95v28"><path id="eedvqbdwb95v29" d="M811.494700,506.259500C808.387200,505.659200,805.380900,507.691600,804.780300,510.799100C797.593300,547.538100,791.856000,584.578200,787.464400,621.678500C787.267600,623.365800,788.427700,624.945900,790.121100,625.224400C791.865100,625.511500,793.511400,624.330400,793.798300,622.586700C799.846800,585.823300,807.196100,549.372200,815.976300,513.239500C815.994000,513.162800,816.019300,513.051800,816.034000,512.973600C816.634600,509.866100,814.602200,506.860100,811.494700,506.259500Z" opacity="0" fill="rgb(255,131,123)" stroke="none" stroke-width="1"/><path id="eedvqbdwb95v30" d="M789.621800,633.845700C786.070100,633.236300,782.340200,637.696200,781.292000,643.806900C780.243700,649.917900,782.273000,655.365900,785.825200,655.975400C789.377400,656.584800,793.106800,652.125200,794.155100,646.014200C795.203900,639.903100,793.174000,634.455100,789.621800,633.845700Z" opacity="0" fill="rgb(255,131,123)" stroke="none" stroke-width="1"/></g></g></svg>